<?xml version="1.0" standalone="no"?>
<!DOCTYPE svg PUBLIC "-//W3C//DTD SVG 20010904//EN"
 "http://www.w3.org/TR/2001/REC-SVG-20010904/DTD/svg10.dtd">
<svg version="1.0" xmlns="http://www.w3.org/2000/svg"
 width="322.000000pt" height="346.000000pt" viewBox="0 0 322.000000 346.000000"
 preserveAspectRatio="xMidYMid meet">

<g transform="translate(0.000000,346.000000) scale(0.100000,-0.100000)"
fill="#000000" stroke="none">
<path d="M1455 3190 c-129 -21 -269 -84 -369 -166 -165 -136 -263 -313 -287
-521 -60 -506 363 -931 869 -874 126 14 215 44 317 105 70 43 81 52 160 131
99 100 172 231 206 370 15 65 16 286 0 350 -35 142 -107 270 -211 376 -109
111 -220 176 -368 214 -72 19 -239 27 -317 15z"/>
<path d="M975 1563 c-98 -21 -153 -35 -170 -42 -84 -35 -138 -61 -190 -91 -76
-44 -71 -40 -170 -133 -125 -117 -233 -289 -221 -349 5 -27 85 -150 139 -216
34 -40 172 -176 224 -219 104 -87 369 -243 413 -243 7 0 26 -6 43 -14 32 -14
132 -44 220 -65 129 -30 415 -36 557 -11 114 20 167 31 185 39 11 5 52 19 90
31 71 22 277 118 283 132 2 5 8 8 13 8 5 0 48 28 96 62 94 66 279 244 332 318
75 107 121 181 121 199 0 21 -37 92 -88 170 -31 47 -188 213 -233 246 -50 37
-159 93 -264 136 -45 18 -150 39 -197 39 -42 0 -60 -7 -107 -38 -150 -100
-316 -147 -496 -139 -184 7 -302 44 -445 138 -56 37 -99 51 -135 42z"/>
</g>
</svg>
